<?xml version="1.0" encoding="utf-8"?>
<!-- Generator: Adobe Illustrator 22.1.0, SVG Export Plug-In . SVG Version: 6.00 Build 0)  -->
<svg version="1.1" id="Layer_1" xmlns="http://www.w3.org/2000/svg" xmlns:xlink="http://www.w3.org/1999/xlink" x="0px" y="0px"
	 viewBox="0 0 122 135" style="enable-background:new 0 0 122 135;" xml:space="preserve">
<style type="text/css">
	.st0{fill:#FFA070;}
</style>
<path class="st0" d="M65.7,88L88,65.7c1.3-1.3,1.9-2.9,1.9-4.6c0-1.6-0.6-3.2-1.8-4.5c-2.5-2.7-6.9-2.5-9.6,0.1L63.8,71.5
	c-1.5,1.5-3.9,1.5-5.4,0L43.6,56.7c-2.5-2.5-6.7-2.8-9.3-0.3c-2.7,2.5-2.7,6.8-0.1,9.4l22.3,22.3c1.3,1.3,2.9,1.9,4.6,1.9
	c1.3,0,2.5-0.4,3.6-1.1C65,88.6,65.4,88.4,65.7,88z"/>
</svg>
