<?xml version="1.0" encoding="utf-8"?>
<!-- Generator: Adobe Illustrator 22.1.0, SVG Export Plug-In . SVG Version: 6.00 Build 0)  -->
<svg version="1.1" id="Layer_1" xmlns="http://www.w3.org/2000/svg" xmlns:xlink="http://www.w3.org/1999/xlink" x="0px" y="0px"
	 viewBox="0 0 500 500" style="enable-background:new 0 0 500 500;" xml:space="preserve">
<style type="text/css">
	.st0{fill:#022B3C;}
	.st1{fill:#798F80;}
</style>
<path class="st0" d="M197.1,164c0.7,0.7,0.7,1.7,0,2.4l-6.5,6.5c-1.1,1.1-1.2,3.1,0,4.2c0.6,0.5,1.3,0.8,2,0.8c0.7,0,1.5-0.3,2-0.8
	l9.8-9.8c0.6-0.6,0.8-1.3,0.8-2c0-0.6-0.2-1.1-0.5-1.6c-0.1-0.2-0.2-0.3-0.4-0.4l-9.7-9.8c-1.1-1.1-2.9-1.2-4.1-0.1
	c-1.2,1.1-1.2,3,0,4.1L197.1,164z"/>
<path class="st0" d="M301,167.1l9.8,9.8c0.6,0.6,1.3,0.8,2,0.8c0.7,0,1.4-0.3,2-0.8c1.2-1.1,1.1-3,0-4.2l-6.5-6.5
	c-0.7-0.7-0.7-1.7,0-2.4l6.5-6.5c1.1-1.1,1.2-2.9,0.1-4.1c-1.1-1.2-3-1.2-4.1,0L301,163c-0.6,0.6-0.8,1.3-0.8,2
	c0,0.6,0.2,1.1,0.5,1.6C300.7,166.8,300.8,166.9,301,167.1z"/>
<path class="st0" d="M167,170.8c0.7,0.7,2,0.7,2.8,0l4.2-4.2c0.7-0.7,0.7-2,0-2.8l-4.2-4.2c-0.7-0.7-2-0.7-2.8,0l-4.2,4.2
	c-0.7,0.7-0.7,2,0,2.8L167,170.8z"/>
<path class="st0" d="M52.1,214.6c-6.2,0-11.2,2.2-14.9,5.8c-5.6,5.6-6,10.7-6,24.4s0.4,18.7,6,24.4c3.7,3.7,8.7,5.8,14.9,5.8
	c6.2,0,11.2-2.2,14.9-5.8c5.6-5.6,6-10.7,6-24.4s-0.4-18.7-6-24.4C63.2,216.9,58.2,214.6,52.1,214.6z M62.3,265.1
	c-2.7,2.8-6.2,4.3-10.2,4.3s-7.6-1.5-10.2-4.3c-3.7-3.8-4.2-8-4.2-20.3c0-12.2,0.4-16.5,4.2-20.3c2.7-2.8,6.2-4.3,10.2-4.3
	s7.6,1.5,10.2,4.3c3.7,3.8,4.2,8,4.2,20.3C66.5,257,66.1,261.3,62.3,265.1z"/>
<path class="st0" d="M142.5,248.3h12.4v0c1.2,0,1.8-0.1,2.3-0.3c0.2-0.1,0.4-0.1,0.5-0.3c0.7-0.5,1.2-1.3,1.2-2.3
	c0-1-0.4-1.8-1.2-2.3c-0.6-0.4-1.2-0.5-2.8-0.5h-15.3c-0.9,0-1.8,0.4-2.6,1l-3.7,3.4c-0.4,0.3-0.9,0.1-0.9-0.4v-24.9
	c0-0.5,0.4-1,1-1h25.9c1.6,0,2.1-0.1,2.8-0.5c0.7-0.5,1.2-1.3,1.2-2.3c0-1-0.4-1.8-1.2-2.3c-0.6-0.4-1.2-0.5-2.8-0.5h-29.4
	c-1,0-2.1,0-3,0.9c-0.9,0.9-0.9,2-0.9,3v51.5c0,1.7,0.1,2.2,0.6,3c0.5,0.8,1.5,1.3,2.6,1.3s2.1-0.5,2.6-1.3c0.5-0.8,0.6-1.3,0.6-3
	v-12.4c0-1.1,0.5-2.2,1.3-3l6-5.8C140.6,248.7,141.5,248.3,142.5,248.3z"/>
<path class="st0" d="M208.5,215.6c-0.6-0.4-1.2-0.5-2.8-0.5h-33.5c-1.6,0-2.1,0.1-2.8,0.5c-0.7,0.5-1.2,1.3-1.2,2.3s0.4,1.8,1.2,2.3
	c0.6,0.4,1.2,0.5,2.8,0.5h12.5c0.5,0,1,0.4,1,1V241c0,0.5-0.4,1-1,1h-4.7c-1.6,0-3,1.3-3.1,2.9c0,1.7,1.3,3.1,3,3.1h4.9
	c0.5,0,1,0.4,1,1v21.6c0,1.7,0.1,2.2,0.6,3c0.5,0.8,1.5,1.3,2.6,1.3c1.2,0,2.1-0.5,2.6-1.3c0.5-0.8,0.6-1.3,0.6-3V249
	c0-0.5,0.4-1,1-1h4.7c1.6,0,3-1.3,3.1-2.9c0-1.7-1.3-3.1-3-3.1h-4.9c-0.5,0-1-0.4-1-1v-19.3c0-0.5,0.4-1,1-1h12.5
	c1.6,0,2.1-0.1,2.8-0.5c0.7-0.5,1.2-1.3,1.2-2.3C209.7,216.9,209.3,216.1,208.5,215.6z"/>
<path class="st0" d="M307.5,271.7c0-1-0.4-1.8-1.2-2.3c-0.6-0.4-1.2-0.5-2.8-0.5h-25.9c-0.5,0-1-0.4-1-1v-10.7c0-1.1,0.5-2.2,1.3-3
	l5.9-5.7c0.7-0.7,1.6-1,2.6-1h12.5c1.6,0,2.1-0.1,2.8-0.5c0.7-0.5,1.2-1.3,1.2-2.3c0-1-0.4-1.8-1.2-2.3c-0.6-0.4-1.2-0.5-2.8-0.5
	h-15.3c-0.9,0-1.8,0.4-2.5,1l-3.6,3.3c-0.4,0.3-0.9,0.1-0.9-0.4v-23.9c0-0.5,0.4-1,1-1h25.9c1.6,0,2.1-0.1,2.8-0.5
	c0.7-0.5,1.2-1.3,1.2-2.3s-0.4-1.8-1.2-2.3c-0.6-0.4-1.2-0.5-2.8-0.5h-29.4c-1,0-2.1,0-3,0.9c-0.9,0.9-0.9,2-0.9,3v51.7
	c0,1,0,2.1,0.9,3c0.9,0.9,2,0.9,3,0.9h29.4c1.6,0,2.1-0.1,2.8-0.5C307.1,273.5,307.5,272.7,307.5,271.7z"/>
<path class="st0" d="M355.1,216.9c-0.3-1.2-1.7-2.2-3-2.2c-0.6,0-1.3,0.2-1.8,0.6c-0.6,0.5-0.9,1.1-1.4,2.5L334.6,262
	c-0.2,0.5-0.8,0.5-1,0l-5.4-16.5c-0.3-1-0.3-2,0-3l7.9-24c0.5-1.5-0.3-3.2-1.8-3.7s-3.2,0.3-3.7,1.8l-5.5,16.5c-0.2,0.5-0.8,0.5-1,0
	l-5.1-15.4c-0.4-1.4-0.7-1.9-1.4-2.5c-0.4-0.4-1.1-0.6-1.8-0.6c-1.3,0-2.7,0.9-3,2.2c-0.2,0.8-0.1,1.5,0.4,2.9l17.2,51.6
	c0.4,1.2,0.8,2.1,1.3,2.6c0.7,0.7,1.3,0.9,2.2,0.9c0.8,0,1.5-0.2,2.2-0.9c0.5-0.4,1-1.4,1.3-2.6l17.2-51.6
	C355.2,218.4,355.3,217.7,355.1,216.9z"/>
<path class="st0" d="M421.6,214.8c-1.2,0-2.1,0.5-2.6,1.3c-0.5,0.8-0.6,1.3-0.6,3v41.4c0,0.6-0.7,0.8-1.1,0.3l-10.2-15.1
	c-0.2-0.4-0.2-0.8,0.1-1.1l4.1-4.1c1.1-1.1,1.1-3,0-4.2c-1.1-1.1-3-1.1-4.2,0l-3.1,3.1c-0.4,0.4-1,0.3-1.3-0.1l-14.9-21.9
	c-1.1-1.6-2.1-2.6-3.7-2.6c-1,0-1.8,0.4-2.4,1c-0.7,0.7-1,1.7-1,3.2v51.5c0,1.7,0.1,2.2,0.6,3c0.5,0.8,1.5,1.3,2.6,1.3
	s2.1-0.5,2.6-1.3c0.5-0.8,0.6-1.3,0.6-3v-41.4c0-0.6,0.7-0.8,1.1-0.3l10.2,15.1c0.2,0.4,0.2,0.8-0.1,1.1l-4.1,4.1
	c-1.1,1.1-1.1,3,0,4.2c0.6,0.6,1.4,0.9,2.1,0.9s1.5-0.3,2.1-0.9l3.1-3.1c0.4-0.4,1-0.3,1.3,0.1l14.9,21.9c1.1,1.6,2.1,2.6,3.7,2.6
	c1,0,1.8-0.4,2.4-1c0.7-0.7,1-1.7,1-3.2v-51.6c0-1.7-0.1-2.2-0.6-3C423.8,215.3,422.8,214.8,421.6,214.8z"/>
<path class="st0" d="M117.9,215.4c-0.6-0.4-1.2-0.5-2.8-0.5H85.8c-1,0-2.1,0-3,0.9c-0.9,0.9-0.9,2-0.9,3v51.5c0,1.7,0.1,2.2,0.6,3
	c0.5,0.8,1.5,1.3,2.6,1.3s2.1-0.5,2.6-1.3c0.5-0.8,0.6-1.3,0.6-3V258c0-1.1,0.5-2.2,1.3-3l6-5.8c0.7-0.7,1.6-1,2.6-1h12.4v0
	c1.2,0,1.8-0.1,2.3-0.3c0.2-0.1,0.4-0.1,0.5-0.3c0.7-0.5,1.2-1.3,1.2-2.3c0-1-0.4-1.8-1.2-2.3c-0.6-0.4-1.2-0.5-2.8-0.5H95.4
	c-0.9,0-1.8,0.4-2.6,1l-3.7,3.4c-0.4,0.3-0.9,0.1-0.9-0.4v-24.9c0-0.5,0.4-1,1-1h25.9c1.6,0,2.1-0.1,2.8-0.5
	c0.7-0.5,1.2-1.3,1.2-2.3C119.1,216.8,118.6,216,117.9,215.4z"/>
<path class="st0" d="M472.9,269.4c-0.6-0.4-1.2-0.5-2.8-0.5h-25.9c-0.5,0-1-0.4-1-1v-10.7c0-1.1,0.5-2.2,1.3-3l5.9-5.7
	c0.7-0.7,1.6-1,2.6-1h12.5c1.6,0,2.1-0.1,2.8-0.5c0.7-0.5,1.2-1.3,1.2-2.3c0-1-0.4-1.8-1.2-2.3c-0.6-0.4-1.2-0.5-2.8-0.5h-15.3
	c-0.9,0-1.8,0.4-2.5,1l-3.6,3.3c-0.4,0.3-0.9,0.1-0.9-0.4v-23.9c0-0.5,0.4-1,1-1h25.9c1.6,0,2.1-0.1,2.8-0.5
	c0.7-0.5,1.2-1.3,1.2-2.3s-0.4-1.8-1.2-2.3c-0.6-0.4-1.2-0.5-2.8-0.5h-29.4c-1,0-2.1,0-3,0.9c-0.9,0.9-0.9,2-0.9,3v51.7
	c0,1,0,2.1,0.9,3c0.9,0.9,2,0.9,3,0.9h29.4c1.6,0,2.1-0.1,2.8-0.5c0.7-0.5,1.2-1.3,1.2-2.3C474.2,270.7,473.7,269.8,472.9,269.4z"/>
<path class="st0" d="M259.5,242l-0.5,0.3c-0.3,0.1-0.7-0.1-0.7-0.4v-22.7c0-1.7-0.1-2.2-0.6-3c-0.5-0.8-1.5-1.3-2.6-1.3
	c-1.2,0-2.1,0.5-2.6,1.3c-0.5,0.8-0.6,1.3-0.6,3v25.5c0,0.6-0.4,1.1-0.9,1.4l-12.2,5.7c-0.6,0.3-1.3,0.3-1.9,0l-12.2-5.7
	c-0.5-0.3-0.9-0.8-0.9-1.4v-25.5c0-1.7-0.1-2.2-0.6-3c-0.5-0.8-1.5-1.3-2.6-1.3c-1.2,0-2.1,0.5-2.6,1.3c-0.5,0.8-0.6,1.3-0.6,3v22.7
	c0,0.4-0.4,0.6-0.7,0.4l-0.5-0.3c-1.5-0.7-3.3-0.1-4,1.3c-0.7,1.5-0.1,3.3,1.4,4l2.9,1.4c0.5,0.3,0.9,0.8,0.9,1.4v20.4
	c0,1.7,0.1,2.2,0.6,3c0.5,0.8,1.5,1.3,2.6,1.3c1.2,0,2.1-0.5,2.6-1.3c0.5-0.8,0.6-1.3,0.6-3v-17.5c0-0.4,0.4-0.7,0.9-0.6l11.9,5.5
	c0,0,0,0,0,0c0,0,0,0,0.1,0c0.1,0,0.2,0.1,0.3,0.1c0,0,0.1,0,0.1,0c0.1,0,0.2,0,0.3,0c0,0,0.1,0,0.1,0c0.1,0,0.3,0,0.4,0l0,0l0,0
	c0.1,0,0.3,0,0.4,0c0,0,0.1,0,0.1,0c0.1,0,0.2,0,0.3,0c0,0,0.1,0,0.1,0c0.1,0,0.2,0,0.3-0.1c0,0,0,0,0.1,0c0,0,0,0,0,0l11.9-5.5
	c0.4-0.2,0.9,0.1,0.9,0.6v17.5c0,1.7,0.1,2.2,0.6,3c0.5,0.8,1.5,1.3,2.6,1.3s2.1-0.5,2.6-1.3c0.5-0.8,0.6-1.3,0.6-3v-20.4
	c0-0.6,0.4-1.1,0.9-1.4l2.9-1.4c1.5-0.7,2.2-2.5,1.4-4C262.8,241.9,261,241.3,259.5,242z"/>
<path class="st0" d="M335.6,170.6c0.7,0.7,2,0.7,2.8,0l4.2-4.2c0.7-0.7,0.7-2,0-2.8l-4.2-4.2c-0.7-0.7-2-0.7-2.8,0l-4.2,4.2
	c-0.7,0.7-0.7,2,0,2.8L335.6,170.6z"/>
<path class="st0" d="M53.4,239.2c-0.7-0.7-2-0.7-2.8,0l-4.2,4.2c-0.7,0.7-0.7,2,0,2.8l4.2,4.2c0.7,0.7,2,0.7,2.8,0l4.2-4.2
	c0.7-0.7,0.7-2,0-2.8L53.4,239.2z"/>
<path class="st0" d="M370,242c-0.5,0-1-0.4-1-1v-21.9c0-1.7-0.1-2.2-0.6-3c-0.5-0.8-1.5-1.3-2.6-1.3c-1.2,0-2.1,0.5-2.6,1.3
	c-0.5,0.8-0.6,1.3-0.6,3V241c0,0.5-0.4,1-1,1l0,0c-1.6,0-3,1.3-3.1,2.9c0,1.7,1.3,3.1,3,3.1h0.1c0.5,0,1,0.4,1,1v21.6
	c0,1.7,0.1,2.2,0.6,3c0.5,0.8,1.5,1.3,2.6,1.3s2.1-0.5,2.6-1.3c0.5-0.8,0.6-1.3,0.6-3V249c0-0.5,0.4-1,1-1h0.1
	c1.8,0,3.2-1.5,2.9-3.3C372.9,243.1,371.5,242,370,242z"/>
<path class="st0" d="M222.3,157.7c0.5,0.5,0.7,1.1,0.5,1.8c-0.4,1.8-0.6,3.6-0.6,5.5c0,10.2,6.8,20.6,19.7,20.6h6.3
	c0.7,0,1.3,0.6,1.3,1.3v9.8c0,1.7,0.1,2.2,0.6,3c0.5,0.8,1.5,1.3,2.6,1.3c1.2,0,2.1-0.5,2.6-1.3c0.5-0.8,0.6-1.3,0.6-3v-9.8
	c0-0.7,0.6-1.3,1.3-1.3h6.3c6.1,0,11.2-2.3,14.8-6.6c3.1-3.7,4.9-8.8,4.9-14.1c0-1.8-0.2-3.7-0.7-5.5c-0.2-0.7,0-1.3,0.5-1.8
	l6.8-6.8c1.2-1.2,1.1-3.1,0-4.3c-1.2-1.1-3.1-1-4.2,0.1l-5.1,5.1c-0.4,0.4-1.1,0.4-1.5-0.1c-3.3-4.4-8.5-7.5-15.5-7.5h-6.3
	c-0.7,0-1.3-0.6-1.3-1.3v-5.1c0-0.7,0.6-1.3,1.3-1.3h12.2c1.6,0,2.1-0.1,2.8-0.5c0.7-0.5,1.2-1.3,1.2-2.3c0-1-0.4-1.8-1.2-2.3
	c-0.6-0.4-1.2-0.5-2.8-0.5H236c-1.6,0-2.1,0.1-2.8,0.5c-0.7,0.5-1.2,1.3-1.2,2.3c0,1,0.4,1.8,1.2,2.3c0.6,0.4,1.2,0.5,2.8,0.5h12.2
	c0.7,0,1.3,0.6,1.3,1.3v5.2c0,0.7-0.6,1.3-1.3,1.3h-6.3c-6.1,0-11.2,2.3-14.8,6.6c-0.2,0.3-0.5,0.6-0.7,0.9c-0.4,0.5-1,0.5-1.5,0.1
	l-5.1-5.1c-1.1-1.1-3-1.3-4.2-0.1c-1.2,1.1-1.2,3.1,0,4.3L222.3,157.7z M277.6,164.3c0,0.2,0,0.4,0,0.7c0,4-1.3,7.8-3.6,10.5
	c-2.5,3-6.2,4.6-10.6,4.6h-1.8c-0.4,0-0.6-0.4-0.3-0.7l15.3-15.3C277,163.7,277.5,163.9,277.6,164.3z M255.9,151.2
	c0-0.7,0.6-1.3,1.3-1.3h6.3c5.4,0,9.1,2.4,11.4,5.7c0.4,0.6,0.4,1.5-0.2,2l-17.9,17.9c-0.4,0.4-0.9,0.1-0.9-0.4L255.9,151.2
	L255.9,151.2z M230.5,155.7c0.3-0.4,0.5-0.8,0.8-1.1c2.5-3,6.2-4.6,10.6-4.6h6.3c0.7,0,1.3,0.6,1.3,1.3v24c0,0.5-0.6,0.7-0.9,0.4
	l-17.9-17.9C230.1,157.2,230,156.3,230.5,155.7z M227.8,164.3c0-0.4,0.5-0.6,0.8-0.3l15.3,15.3c0.3,0.3,0.1,0.7-0.3,0.7h-1.8
	c-9.7,0-14.1-7.8-14.1-15.1C227.7,164.8,227.7,164.6,227.8,164.3z"/>
<g>
	<path class="st0" d="M147,322c-0.3,1-0.6,1.8-1.3,2.4c-0.5,0.4-1.1,0.6-1.9,0.6c-0.7,0-1.4-0.2-1.9-0.6c-0.7-0.6-1.1-1.4-1.3-2.4
		l-5.3-21.3c-0.3-1.3-0.4-1.7-0.2-2.3c0.2-1,1.4-1.8,2.6-1.8c0.7,0,1.4,0.3,1.8,0.7c0.4,0.5,0.6,1,0.9,2.2l3.7,15l4.5-15.6
		c0.2-0.7,0.5-1.3,0.9-1.7c0.4-0.4,1-0.6,1.8-0.6s1.4,0.2,1.8,0.6c0.4,0.4,0.7,0.9,0.9,1.7l4.5,15.6l3.7-15c0.3-1.2,0.4-1.6,0.9-2.2
		c0.4-0.4,1-0.7,1.8-0.7c1.2,0,2.3,0.8,2.6,1.8c0.1,0.7,0.1,1.1-0.2,2.3l-5.4,21.3c-0.2,1-0.6,1.8-1.3,2.4c-0.5,0.4-1.1,0.6-1.9,0.6
		s-1.4-0.2-1.9-0.6c-0.7-0.6-1-1.4-1.3-2.4l-4.3-14.6L147,322z"/>
	<path class="st0" d="M195.9,321.2c0,1.3,0,1.8-0.4,2.4c-0.4,0.8-1.3,1.3-2.4,1.3c-1.1,0-2-0.5-2.4-1.3c-0.4-0.7-0.4-1.1-0.4-2.4
		v-21c0-1.3,0-1.8,0.4-2.4c0.4-0.8,1.3-1.3,2.4-1.3c1.1,0,2,0.5,2.4,1.3c0.4,0.7,0.4,1.1,0.4,2.4V321.2z"/>
	<path class="st0" d="M242.1,321.5c0,1.1-0.1,1.9-0.7,2.6c-0.6,0.6-1.2,0.8-2.1,0.8c-1.3,0-2.1-0.8-3.2-2.5l-10-14.8v13.6
		c0,1.3,0,1.8-0.4,2.4c-0.4,0.8-1.3,1.3-2.4,1.3c-1.1,0-2-0.5-2.4-1.3c-0.4-0.7-0.4-1.1-0.4-2.4v-21.3c0-1.1,0.1-1.9,0.7-2.6
		c0.6-0.6,1.2-0.8,2.1-0.8c1.3,0,2.1,0.8,3.3,2.5l10,14.8v-13.6c0-1.3,0-1.8,0.4-2.4c0.4-0.8,1.3-1.3,2.4-1.3c1.1,0,2,0.5,2.4,1.3
		c0.4,0.7,0.4,1.1,0.4,2.4V321.5L242.1,321.5z"/>
	<path class="st0" d="M267.5,324c-0.8-0.8-0.8-1.8-0.8-2.6V300c0-0.8,0-1.8,0.8-2.6c0.8-0.8,1.8-0.8,2.6-0.8h12.1
		c1.2,0,1.6,0,2.2,0.3c0.7,0.4,1.2,1.2,1.2,2.2c0,1-0.5,1.8-1.2,2.2c-0.5,0.3-1,0.3-2.2,0.3h-9.9v6.6h8c1.2,0,1.6,0,2.2,0.3
		c0.7,0.4,1.2,1.2,1.2,2.2s-0.5,1.8-1.2,2.2c-0.5,0.3-1,0.3-2.2,0.3h-8v6.8h9.9c1.2,0,1.6,0,2.2,0.3c0.7,0.4,1.2,1.2,1.2,2.2
		s-0.5,1.8-1.2,2.2c-0.5,0.3-1,0.3-2.2,0.3h-12.1C269.3,324.8,268.3,324.8,267.5,324z"/>
	<path class="st0" d="M314.2,321.2c0,1.3,0,1.8-0.4,2.4c-0.4,0.8-1.3,1.3-2.4,1.3c-1.1,0-2-0.5-2.4-1.3c-0.4-0.7-0.4-1.1-0.4-2.4
		V300c0-0.8,0-1.8,0.8-2.6s1.8-0.8,2.6-0.8h7.7c5.8,0,9.1,3.9,9.1,8.6c0,3.3-1.8,6.1-5.1,7.4l4.2,7.3c0.6,1.1,0.8,1.5,0.9,2.2
		c0,0.9-0.4,1.8-1.4,2.3c-0.5,0.3-1,0.4-1.5,0.4c-1.5,0-2.1-1-2.8-2.2l-5.2-9.1h-3.9L314.2,321.2L314.2,321.2z M319.4,308.9
		c2.4,0,4-1.5,4-3.7s-1.5-3.7-4-3.7h-5.2v7.4H319.4z"/>
	<path class="st0" d="M358,323.6c-0.4-0.7-0.4-1.1-0.4-2.4v-7.5l-6.4-12.7c-0.6-1.1-0.7-1.5-0.7-2.2c0-0.8,0.5-1.6,1.5-2.1
		c0.4-0.2,0.9-0.3,1.3-0.3c0.5,0,0.9,0.2,1.3,0.4c0.5,0.4,0.7,0.7,1.3,1.9l4.5,9.1l4.5-9.1c0.6-1.1,0.8-1.5,1.3-1.9
		c0.4-0.3,0.8-0.4,1.3-0.4c0.4,0,0.8,0.1,1.3,0.3c0.9,0.4,1.4,1.3,1.5,2.1c0,0.6-0.2,1.1-0.7,2.2l-6.4,12.7v7.5c0,1.3,0,1.8-0.4,2.4
		c-0.4,0.8-1.3,1.3-2.4,1.3C359.3,325,358.4,324.4,358,323.6z"/>
</g>
<rect x="-298" class="st1" width="145" height="145"/>
</svg>
