<?xml version="1.0" encoding="utf-8"?>
<!-- Generator: Adobe Illustrator 22.1.0, SVG Export Plug-In . SVG Version: 6.00 Build 0)  -->
<svg version="1.1" id="Layer_1" xmlns="http://www.w3.org/2000/svg" xmlns:xlink="http://www.w3.org/1999/xlink" x="0px" y="0px"
	 viewBox="0 0 256.1 260" style="enable-background:new 0 0 256.1 260;" xml:space="preserve">
<style type="text/css">
	.st0{fill:#5B525B;}
</style>
<path class="st0" d="M196.3,87c14.5,2,23.9-3.1,23.1-22.2c-0.9-20.8-3.2-23.5-23.6-24.4c-16.7-0.7-26.1,4.3-25.7,22.8
	C170.5,83.3,173.5,86.9,196.3,87 M126.9,173.5c24.9-0.2,46.5-20.7,46.4-43.9c-0.1-24-22.7-44.8-48.2-44.3
	c-25.2,0.4-45.7,20.2-45.9,44.2C79.1,154.2,100.2,173.7,126.9,173.5 M53.2,113.9c-18.4-3-20.6-2.4-20.9,11.1
	c-0.7,24.8-1.3,49.8,0.6,74.5c0.5,6.4,10.4,17.2,16.2,17.3c51.6,1.4,103.2,1.2,154.8,0.2c5.1-0.1,14.1-8.1,14.3-12.7
	c1.3-30.2,0.7-60.5,0.7-90.9c-5.3-0.9-8.3-1.8-11.3-1.8c-2.9,0.1-5.8,1.2-8.3,1.8c-2.6,55.8-26.8,83.9-71.8,84.4
	C80.9,198.3,57.4,172.1,53.2,113.9 M13,130.2c0-21.8-0.3-43.6,0.1-65.3c0.4-27,13.7-43.2,40.2-44c48.5-1.4,97.1-1.5,145.6,0
	c25.8,0.8,40.4,18.3,40.6,44.4c0.4,44.2,0.4,88.4,0,132.5c-0.2,26.8-15.6,43.5-42.7,44.1c-47.3,1-94.6,1-141.8,0
	c-27.3-0.6-41.5-16.7-41.9-44.4C12.8,175,13,152.6,13,130.2"/>
</svg>
