<?xml version="1.0" encoding="utf-8"?>
<!-- Generator: Adobe Illustrator 22.1.0, SVG Export Plug-In . SVG Version: 6.00 Build 0)  -->
<svg version="1.1" id="Layer_1" xmlns="http://www.w3.org/2000/svg" xmlns:xlink="http://www.w3.org/1999/xlink" x="0px" y="0px"
	 viewBox="0 0 249.8 231.2" style="enable-background:new 0 0 249.8 231.2;" xml:space="preserve">
<style type="text/css">
	.st0{fill:#5B525B;}
</style>
<path class="st0" d="M31.9,41.3c26.8,25.9,54.9,44,91.4,44.3c1.1-3,2-4.4,2.2-6c6.4-45,32-57.7,73.8-38.2c7.4,3.4,18.2-0.6,28.2-1.3
	c-3.2,4.9-6.8,10.5-11.6,17.9c5.9-0.5,9.9-0.8,14.7-1.2c-0.8,2.1-1,3.9-1.9,4.7c-9.2,8.2-14.2,17.1-15.3,30.5
	c-7.7,92.1-107.9,146.2-185.1,101.6c17.5-5.7,35.6-11.7,54.7-17.9C67.5,165,55.7,156.6,40.6,146c9-3.8,12.5-5.3,17.3-7.4
	c-14.5-10-29-18.7-29.7-39c4.5-0.8,8.9-1.5,14.8-2.5C28.3,81.4,24.3,63.9,31.9,41.3"/>
</svg>
