<?xml version="1.0" encoding="utf-8"?>
<!-- Generator: Adobe Illustrator 22.1.0, SVG Export Plug-In . SVG Version: 6.00 Build 0)  -->
<svg version="1.1" id="Layer_1" xmlns="http://www.w3.org/2000/svg" xmlns:xlink="http://www.w3.org/1999/xlink" x="0px" y="0px"
	 viewBox="0 0 237.7 242" style="enable-background:new 0 0 237.7 242;" xml:space="preserve">
<style type="text/css">
	.st0{fill:#5B525B;}
</style>
<path class="st0" d="M182.8,142.2V117h-8.6c-4.6,0-9.2-0.1-13.8,0c-2.4,0.1-3.5-0.6-3.4-3.2c0.1-6.4,0-12.8,0.1-19.3
	c0.1-7,6.9-13.2,14.9-13.5c3.7-0.1,7.5,0.1,11.2-0.1c0.8-0.1,2.3-1.1,2.3-1.7c0.2-5.8,0.1-11.5,0.1-17.3v-3.5
	c-0.8-0.2-1.3-0.4-1.8-0.4c-9.2,0.1-18.4-0.4-27.6,0.3c-15.3,1.2-26.6,13.9-26.7,29.3c-0.1,8.8-0.1,17.5,0,26.3
	c0,2.4-0.8,3.2-3.1,3.1c-6.2-0.1-12.4-0.1-18.6,0c-1.3,0-2.5,0.2-4.1,0.3c0,8-0.1,15.8,0.1,23.6c0,0.5,1.8,1.5,2.8,1.5
	c6.5,0.1,13,0.2,19.6,0.1c2.4-0.1,3.3,0.7,3.3,3.3c-0.1,24.7-0.1,49.4-0.1,74.1c0,0.8-0.1,1.7-0.2,2.7c-1.1,0.1-2,0.2-2.9,0.2
	c-21.1,0-42.1,0.3-63.2-0.2c-18.4-0.4-32.7-8.3-40.7-25.6c-3.6-7.6-4.2-15.9-4.2-24.1c-0.1-33.6-0.2-67.2,0-100.8
	c0.1-10.5,1.1-20.9,7.1-30.1c9.3-14.2,22.8-20.1,39.2-20.2c34.9-0.2,69.7-0.3,104.6-0.3c10.9,0,21.6,1.3,30.9,7.8
	c11.2,7.8,18.1,18.5,18.6,32.1c0.8,20.4,0.6,40.8,0.7,61.2c0.1,18.1,0.2,36.2-0.1,54.2c-0.2,13.6-4.5,25.5-14.9,34.8
	c-8.5,7.5-18.8,10.3-29.8,10.9c-4.6,0.2-9.2,0-13.8,0.2c-2.8,0.2-3.7-0.8-3.7-3.6c0.1-14.2,0.1-28.4,0.1-42.7
	c0-10.1,0.1-20.1-0.1-30.2c-0.1-3.1,1-4.1,4-4c6,0.2,12,0.1,18,0.1C180.2,142.4,181.4,142.3,182.8,142.2"/>
</svg>
