<?xml version="1.0" encoding="utf-8"?>
<!-- Generator: Adobe Illustrator 22.1.0, SVG Export Plug-In . SVG Version: 6.00 Build 0)  -->
<svg version="1.1" id="Layer_1" xmlns="http://www.w3.org/2000/svg" xmlns:xlink="http://www.w3.org/1999/xlink" x="0px" y="0px"
	 viewBox="0 0 1082 232.1" style="enable-background:new 0 0 1082 232.1;" xml:space="preserve">
<style type="text/css">
	.st0{fill:#5B525B;}
</style>
<path class="st0" d="M1009.5,134.2V109h-8.6c-4.6,0-9.2-0.1-13.8,0c-2.4,0.1-3.5-0.6-3.4-3.2c0.1-6.4,0-12.8,0.1-19.3
	c0.1-7,6.9-13.2,14.9-13.5c3.7-0.1,7.5,0.1,11.2-0.1c0.8-0.1,2.3-1.1,2.3-1.7c0.2-5.8,0.1-11.5,0.1-17.3v-3.5
	c-0.8-0.2-1.3-0.4-1.8-0.4c-9.2,0.1-18.4-0.4-27.6,0.3c-15.3,1.2-26.6,13.9-26.7,29.3c-0.1,8.8-0.1,17.5,0,26.3
	c0,2.4-0.8,3.2-3.1,3.1c-6.2-0.1-12.4-0.1-18.6,0c-1.3,0-2.5,0.2-4.1,0.3c0,8-0.1,15.8,0.1,23.6c0,0.5,1.8,1.5,2.8,1.5
	c6.5,0.1,13,0.2,19.6,0.1c2.4-0.1,3.3,0.7,3.3,3.3c-0.1,24.7-0.1,49.4-0.1,74.1c0,0.8-0.1,1.7-0.2,2.7c-1.1,0.1-2,0.2-2.9,0.2
	c-21.1,0-42.1,0.3-63.2-0.2c-18.4-0.4-32.7-8.3-40.7-25.6c-3.6-7.6-4.2-15.9-4.2-24.1c-0.1-33.6-0.2-67.2,0-100.8
	c0.1-10.5,1.1-20.9,7.1-30.1c9.3-14.2,22.8-20.1,39.2-20.2c34.9-0.2,69.7-0.3,104.6-0.3c10.9,0,21.6,1.3,30.9,7.8
	c11.2,7.8,18.1,18.5,18.6,32.1c0.8,20.4,0.6,40.8,0.7,61.2c0.1,18.1,0.2,36.2-0.1,54.2c-0.2,13.6-4.5,25.5-14.9,34.8
	c-8.5,7.5-18.8,10.3-29.8,10.9c-4.6,0.2-9.2,0-13.8,0.2c-2.8,0.2-3.7-0.8-3.7-3.6c0.1-14.2,0.1-28.4,0.1-42.7
	c0-10.1,0.1-20.1-0.1-30.2c-0.1-3.1,1-4.1,4-4c6,0.2,12,0.1,18,0.1C1006.8,134.4,1008.1,134.3,1009.5,134.2"/>
<path class="st0" d="M595,34.3c26.8,25.9,54.9,44,91.4,44.3c1.1-3,2-4.4,2.2-6c6.4-45,32-57.7,73.8-38.2c7.4,3.4,18.2-0.6,28.2-1.3
	c-3.2,4.9-6.8,10.5-11.6,17.9c5.9-0.5,9.9-0.8,14.7-1.2c-0.8,2.1-1,3.9-1.9,4.7c-9.2,8.2-14.2,17.1-15.3,30.5
	c-7.7,92.1-107.9,146.2-185.1,101.6c17.5-5.7,35.6-11.7,54.7-17.9c-15.3-10.9-27.2-19.2-42.2-29.9c9-3.8,12.5-5.3,17.3-7.4
	c-14.5-10-29-18.7-29.7-39c4.5-0.8,8.9-1.5,14.8-2.5C591.3,74.4,587.4,56.9,595,34.3"/>
<path class="st0" d="M210.9,76.3c13,1.8,21.5-2.8,20.8-20c-0.8-18.7-2.9-21.1-21.2-21.9c-15-0.7-23.5,3.8-23.1,20.5
	C187.7,73,190.4,76.2,210.9,76.3 M148.5,154.1c22.4-0.2,41.9-18.6,41.8-39.5c-0.1-21.6-20.4-40.3-43.3-39.9
	c-22.7,0.4-41.1,18.1-41.3,39.7C105.5,136.8,124.4,154.3,148.5,154.1 M82.2,100.5c-16.6-2.7-18.5-2.1-18.8,10
	c-0.6,22.4-1.2,44.8,0.5,67c0.4,5.8,9.3,15.5,14.5,15.6c46.4,1.2,92.8,1,139.2,0.2c4.6-0.1,12.7-7.3,12.9-11.4
	c1.2-27.2,0.6-54.5,0.6-81.8c-4.8-0.8-7.5-1.7-10.2-1.6c-2.6,0.1-5.2,1.1-7.5,1.6c-2.3,50.2-24.1,75.5-64.6,75.9
	C107.1,176.5,86,152.8,82.2,100.5 M46.1,115.1c0-19.6-0.3-39.2,0.1-58.8C46.5,32,58.4,17.5,82.3,16.8c43.6-1.3,87.3-1.3,131,0
	c23.2,0.7,36.4,16.5,36.6,39.9c0.3,39.8,0.3,79.5,0,119.3c-0.2,24.1-14,39.2-38.4,39.7c-42.5,0.9-85.1,0.9-127.6,0
	c-24.6-0.5-37.3-15.1-37.7-40C45.8,155.5,46,135.3,46.1,115.1"/>
<path class="st0" d="M328.9,198.3c1-12.9-7.2-15.6-17.5-17c-5.7-0.7-11.6-2.3-16.2-7.6c3.2-0.9,5.9-1.5,8.5-2.4
	c21-7.4,34.3-22.7,42.9-42.5c2.9-6.6,0.6-12.3-5.7-16c-2.9-1.7-6.3-2.8-9.5-4.1c-2.6-1.1-5.5-1.7-7.7-3.3c-1.9-1.3-4.4-4.2-4-5.6
	c1-3.5,4.7-3.7,7.9-3c3.7,0.8,7.2,2.4,10.9,2.9c8.3,1,10.8-1.7,10.6-10c-0.3-10.7-0.6-21.4-0.6-32.1c0.1-19.1,17.9-41.4,40.9-46.4
	c13-2.8,25.7-2.9,38.5,0.9c19.1,5.6,38.7,24.8,37.9,50.9c-0.3,9.5-0.7,19.1-1.1,28.6c-0.2,5.6,1.2,7.7,6.8,7.9
	c3.3,0.2,6.8-0.8,10.1-1.5c1.4-0.3,2.7-1.2,4.2-1.5c3.4-0.7,7.2-0.4,8.6,3c1.5,3.6-2.2,5.1-4.8,6.2c-3.9,1.8-8,3-11.9,4.6
	c-11.2,4.5-14.1,11.6-8.6,22.3c10.2,19.9,24.5,35,47.3,40.1c0.4,0.1,0.9,0.4,1.3,0.7c0.1,0.1,0.2,0.3,0.8,1.4
	c-2.9,1.6-5.7,3.5-8.8,4.5c-4.8,1.6-9.8,2.9-14.8,3.5c-5.3,0.7-7.6,3.4-8.6,8.4c-1.4,7.4-1.7,7.5-9.1,6.1c-14.9-2.7-28.3,0-40.3,9.8
	c-9.6,7.9-20.6,12.6-33.3,10.8c-5.8-0.8-11.5-2.7-16.9-4.9c-3.9-1.6-7.5-4.2-10.8-6.9c-12.1-9.8-25.8-11.6-40.5-8.4
	c-1.1,0.2-2.3,0.4-3.4,0.6C331.3,198.4,330.7,198.3,328.9,198.3"/>
</svg>
