<?xml version="1.0" standalone="no"?>
<!DOCTYPE svg PUBLIC "-//W3C//DTD SVG 20010904//EN"
 "http://www.w3.org/TR/2001/REC-SVG-20010904/DTD/svg10.dtd">
<svg version="1.0" xmlns="http://www.w3.org/2000/svg"
 width="700.000000pt" height="700.000000pt" viewBox="0 0 700.000000 700.000000"
 preserveAspectRatio="xMidYMid meet">
<metadata>
Created by potrace 1.11, written by Peter Selinger 2001-2013
</metadata>
<g transform="translate(0.000000,700.000000) scale(0.100000,-0.100000)"
fill="#000000" stroke="none">
<path d="M3254 5156 c-3 -8 -4 -25 -2 -38 3 -22 7 -23 118 -28 l115 -5 3 -46
3 -46 -86 -7 c-99 -7 -169 -33 -211 -77 -15 -16 -33 -29 -39 -29 -6 0 -29 18
-50 40 -46 47 -80 52 -97 15 -12 -27 -12 -28 70 -116 32 -35 33 -39 35 -130 2
-74 7 -103 24 -135 56 -107 122 -146 258 -154 l90 -5 3 -90 c4 -114 27 -148
78 -111 16 12 20 30 24 108 l5 93 90 5 c101 7 148 26 202 82 55 57 77 121 78
220 l0 87 53 53 c52 53 63 83 40 106 -22 22 -54 12 -93 -28 -45 -46 -57 -49
-78 -16 -28 42 -112 75 -210 82 l-88 7 3 46 3 46 109 5 c89 4 111 8 120 23 8
12 8 22 0 35 -10 15 -37 17 -288 20 -233 2 -277 0 -282 -12z m234 -441 l2
-180 -132 132 c-125 125 -131 133 -120 157 20 45 102 76 197 73 l50 -2 3 -180z
m288 162 c16 -8 40 -27 54 -41 l24 -27 -132 -132 -132 -132 0 171 c0 94 3 174
8 178 11 13 147 -1 178 -17z m-370 -394 c-7 -7 -108 18 -131 33 -35 23 -73 90
-81 144 l-6 45 110 -109 c61 -61 110 -111 108 -113z m465 135 c-14 -44 -53
-93 -90 -112 -14 -8 -49 -17 -76 -21 l-50 -7 110 111 c95 96 110 108 113 89 2
-12 -1 -39 -7 -60z"/>
<path d="M2666 4854 c-26 -25 -19 -42 39 -103 30 -32 55 -62 55 -67 0 -6 -21
-30 -46 -54 -58 -58 -68 -75 -54 -100 21 -39 53 -24 139 64 68 70 81 88 73
103 -20 36 -157 173 -174 173 -9 0 -24 -7 -32 -16z"/>
<path d="M4281 4786 c-70 -71 -83 -88 -78 -108 8 -31 149 -168 174 -168 10 0
24 5 31 12 23 23 12 54 -38 103 -27 27 -50 56 -50 65 0 9 23 38 50 65 50 49
61 80 38 103 -23 23 -44 11 -127 -72z"/>
<path d="M2310 4744 c-22 -20 -40 -44 -40 -53 0 -21 70 -91 92 -91 9 0 32 18
52 40 29 32 34 44 27 59 -10 18 -77 81 -86 81 -3 0 -23 -16 -45 -36z"/>
<path d="M4670 4744 c-22 -20 -40 -44 -40 -53 0 -9 18 -34 39 -55 29 -28 44
-36 59 -32 23 8 82 71 82 88 0 14 -74 88 -89 88 -6 0 -29 -16 -51 -36z"/>
<path d="M645 3987 c-86 -29 -145 -76 -179 -144 -26 -53 -39 -177 -33 -328 9
-209 40 -275 159 -334 101 -51 221 -42 314 22 29 20 58 53 77 85 26 46 30 68
38 170 12 153 -2 336 -30 390 -25 48 -81 99 -140 125 -56 25 -153 31 -206 14z
m172 -96 c90 -41 120 -145 110 -378 -6 -139 -23 -191 -76 -236 -100 -84 -257
-41 -301 83 -17 50 -25 281 -12 364 13 82 46 137 99 165 49 26 125 26 180 2z"/>
<path d="M677 3622 c-20 -21 -37 -45 -37 -54 0 -14 72 -88 85 -88 10 0 95 82
95 91 0 17 -72 89 -89 89 -9 0 -34 -17 -54 -38z"/>
<path d="M1185 3993 c-44 -10 -45 -17 -45 -420 0 -370 1 -384 20 -403 25 -25
42 -25 63 -2 14 15 17 40 17 128 l0 110 58 57 58 57 110 0 c95 0 113 3 127 18
21 23 21 36 1 56 -12 13 -40 16 -143 16 -127 0 -128 0 -166 -30 -21 -16 -39
-30 -41 -30 -2 0 -4 81 -4 180 l0 180 204 0 c220 0 235 3 222 54 -4 16 -15 25
-37 30 -36 7 -413 6 -444 -1z"/>
<path d="M4390 3980 c-18 -18 -18 -22 -5 -67 43 -143 246 -737 256 -749 15
-18 53 -18 68 0 7 8 70 188 141 401 132 396 136 413 95 429 -41 15 -52 -9
-161 -342 l-107 -327 -38 115 c-22 63 -39 126 -39 141 0 14 25 103 55 196 30
94 55 178 55 187 0 9 -11 22 -25 28 -38 17 -57 -8 -100 -139 -20 -62 -38 -113
-40 -113 -2 0 -20 51 -40 113 -49 147 -71 171 -115 127z"/>
<path d="M5090 3980 c-18 -18 -20 -33 -20 -190 l0 -170 -25 -10 c-19 -7 -25
-17 -25 -40 0 -23 6 -33 25 -40 l25 -10 0 -169 c0 -141 3 -172 16 -185 21 -22
61 -20 74 3 6 11 10 90 10 185 0 156 1 165 20 171 11 3 25 15 30 26 13 24 -1
55 -30 64 -19 6 -20 15 -20 180 0 168 -1 174 -22 189 -29 20 -34 20 -58 -4z"/>
<path d="M5352 3984 l-22 -15 0 -398 c0 -418 0 -421 45 -421 44 0 45 8 45 332
0 169 3 308 8 308 10 0 142 -196 142 -211 0 -6 -16 -29 -35 -50 -40 -44 -41
-51 -19 -73 22 -23 47 -20 74 9 13 14 29 25 36 25 7 0 61 -71 119 -157 59 -87
114 -164 123 -170 22 -17 47 -16 66 3 14 13 16 65 16 409 l0 394 -22 15 c-29
20 -34 20 -58 -4 -19 -19 -20 -33 -20 -327 l0 -307 -75 109 -74 108 34 39 c40
43 45 82 15 98 -23 12 -45 3 -74 -29 -11 -12 -23 -21 -27 -21 -4 0 -58 74
-119 165 -95 140 -132 185 -152 185 -2 0 -14 -7 -26 -16z"/>
<path d="M1776 3974 c-14 -14 -16 -62 -16 -404 0 -340 2 -391 16 -404 22 -22
50 -20 68 6 12 17 16 49 16 132 l0 109 58 53 57 54 112 0 c88 0 115 3 127 16
21 20 20 37 -2 57 -15 14 -41 17 -144 17 -124 0 -126 0 -163 -30 -21 -16 -39
-30 -41 -30 -2 0 -4 81 -4 180 l0 180 206 2 c184 3 208 5 218 21 8 12 8 22 0
35 -10 15 -35 17 -252 20 -209 2 -242 0 -256 -14z"/>
<path d="M2362 3978 c-16 -16 -15 -43 1 -56 7 -6 62 -13 123 -14 l109 -3 3
-141 3 -141 -52 -5 c-49 -5 -79 -24 -79 -50 0 -24 43 -48 85 -48 l45 0 0 -173
c0 -182 3 -197 46 -197 39 0 43 19 46 196 l3 169 50 7 c45 6 75 26 75 50 0 24
-43 48 -85 48 l-46 0 3 143 3 142 113 3 c109 3 113 4 124 27 8 19 8 28 -2 40
-11 13 -53 15 -284 15 -198 0 -275 -3 -284 -12z"/>
<path d="M3052 3978 c-8 -8 -12 -65 -12 -189 l0 -176 -23 4 c-14 3 -31 -2 -40
-12 -30 -29 -20 -53 31 -79 l32 -17 0 -164 c0 -174 6 -195 50 -195 40 0 50 36
50 177 0 73 2 133 5 133 2 0 45 -19 95 -41 l90 -42 83 38 c45 20 88 39 95 42
9 4 12 -25 12 -123 0 -141 10 -177 50 -182 44 -7 50 17 50 195 l0 162 33 17
c50 26 60 50 30 79 -9 10 -26 15 -40 12 l-23 -4 0 176 c0 124 -4 181 -12 189
-19 19 -66 15 -78 -7 -6 -12 -10 -99 -10 -214 l0 -195 -86 -41 c-47 -22 -94
-41 -104 -41 -10 0 -57 19 -104 41 l-86 41 0 195 c0 115 -4 202 -10 214 -12
22 -59 26 -78 7z"/>
<path d="M3796 3974 c-14 -13 -16 -64 -16 -404 0 -340 2 -391 16 -404 13 -14
50 -16 254 -16 226 0 240 1 250 19 14 27 13 37 -6 55 -13 14 -47 16 -215 16
l-199 0 0 94 0 93 54 52 55 51 113 0 c121 0 138 6 138 47 0 35 -29 43 -155 43
-118 0 -141 -5 -182 -43 l-23 -20 0 171 0 172 193 0 c158 0 197 3 215 16 26
18 28 37 6 58 -13 14 -50 16 -249 16 -199 0 -236 -2 -249 -16z"/>
<path d="M6126 3974 c-14 -13 -16 -64 -16 -404 0 -340 2 -391 16 -404 13 -14
50 -16 253 -16 171 0 240 3 249 12 18 18 14 56 -7 68 -12 6 -100 10 -215 10
l-196 0 0 92 0 92 54 53 55 52 117 3 c107 3 118 5 131 25 13 19 12 24 -6 42
-19 19 -33 21 -145 21 -122 0 -124 0 -161 -30 -21 -16 -39 -30 -41 -30 -2 0
-4 77 -4 170 l0 170 189 0 c206 0 241 6 241 43 0 45 -10 47 -261 47 -203 0
-240 -2 -253 -16z"/>
<path d="M1902 2838 c-7 -7 -12 -21 -12 -32 1 -36 77 -326 90 -341 15 -18 54
-20 68 -2 5 6 23 59 39 116 l29 104 23 -79 c41 -138 49 -154 82 -154 17 0 32
7 38 19 6 10 29 93 52 185 43 174 43 196 -1 196 -26 0 -36 -17 -55 -90 -9 -36
-21 -83 -27 -105 l-11 -40 -31 109 c-33 114 -51 140 -83 120 -19 -12 -30 -38
-64 -154 l-22 -75 -26 105 c-15 58 -30 111 -34 118 -10 15 -39 16 -55 0z"/>
<path d="M2672 2838 c-17 -17 -17 -359 0 -376 18 -18 56 -14 68 7 6 11 10 89
10 181 0 92 -4 170 -10 181 -12 21 -50 25 -68 7z"/>
<path d="M3091 2831 c-14 -26 -15 -336 -1 -362 12 -22 52 -25 68 -6 6 7 13 58
14 112 l3 99 63 -96 c74 -112 92 -131 124 -126 l23 3 0 195 0 195 -23 3 c-44
7 -52 -12 -52 -126 l0 -106 -77 114 c-63 93 -83 116 -105 118 -18 2 -30 -3
-37 -17z"/>
<path d="M3742 2838 c-18 -18 -17 -361 2 -377 9 -8 54 -11 132 -9 l119 3 0 30
0 30 -87 3 -88 3 0 44 0 45 59 0 c77 0 91 6 91 40 0 34 -14 40 -91 40 l-59 0
0 40 0 40 64 0 c89 0 118 12 114 48 l-3 27 -120 3 c-85 2 -124 -1 -133 -10z"/>
<path d="M4332 2838 c-13 -13 -18 -341 -6 -372 7 -19 45 -21 62 -4 7 7 12 40
12 80 0 65 1 68 24 68 20 0 32 -14 66 -75 46 -84 52 -89 84 -81 39 10 39 34 0
103 l-36 64 26 20 c59 46 52 142 -13 186 -29 20 -47 23 -120 23 -54 0 -92 -5
-99 -12z m173 -78 c18 -15 20 -51 3 -68 -7 -7 -34 -12 -60 -12 l-48 0 0 51 0
52 45 -5 c25 -3 52 -11 60 -18z"/>
<path d="M4910 2830 c-8 -16 -1 -38 40 -120 44 -87 50 -107 50 -160 0 -72 12
-100 43 -100 37 0 47 19 47 91 0 61 5 78 51 173 43 88 50 108 39 121 -7 8 -23
15 -35 15 -19 0 -31 -15 -62 -75 l-38 -75 -38 75 c-31 63 -41 75 -62 75 -14 0
-29 -8 -35 -20z"/>
</g>
</svg>
