<?xml version="1.0" encoding="utf-8"?>
<!-- Generator: Adobe Illustrator 22.1.0, SVG Export Plug-In . SVG Version: 6.00 Build 0)  -->
<svg version="1.1" id="Layer_1" xmlns="http://www.w3.org/2000/svg" xmlns:xlink="http://www.w3.org/1999/xlink" x="0px" y="0px"
	 viewBox="0 0 60 20" style="enable-background:new 0 0 60 20;" xml:space="preserve">
<style type="text/css">
	.st0{fill:#5B525B;}
</style>
<path class="st0" d="M55.4,11.2V9.8h-0.5c-0.3,0-0.5,0-0.7,0c-0.1,0-0.2,0-0.2-0.2c0-0.3,0-0.7,0-1c0-0.4,0.4-0.7,0.8-0.7
	c0.2,0,0.4,0,0.6,0c0,0,0.1-0.1,0.1-0.1c0-0.3,0-0.6,0-0.9V6.6c0,0-0.1,0-0.1,0c-0.5,0-1,0-1.5,0c-0.8,0.1-1.4,0.8-1.4,1.6
	c0,0.5,0,1,0,1.4c0,0.1,0,0.2-0.2,0.2c-0.3,0-0.7,0-1,0c-0.1,0-0.1,0-0.2,0c0,0.4,0,0.9,0,1.3c0,0,0.1,0.1,0.2,0.1
	c0.4,0,0.7,0,1.1,0c0.1,0,0.2,0,0.2,0.2c0,1.3,0,2.7,0,4c0,0,0,0.1,0,0.1c-0.1,0-0.1,0-0.2,0c-1.1,0-2.3,0-3.4,0
	c-1,0-1.8-0.5-2.2-1.4c-0.2-0.4-0.2-0.9-0.2-1.3c0-1.8,0-3.6,0-5.5c0-0.6,0.1-1.1,0.4-1.6C47.3,5,48.1,4.6,49,4.6c1.9,0,3.8,0,5.7,0
	c0.6,0,1.2,0.1,1.7,0.4c0.6,0.4,1,1,1,1.7c0,1.1,0,2.2,0,3.3c0,1,0,2,0,2.9c0,0.7-0.2,1.4-0.8,1.9c-0.5,0.4-1,0.6-1.6,0.6
	c-0.2,0-0.5,0-0.7,0c-0.2,0-0.2,0-0.2-0.2c0-0.8,0-1.5,0-2.3c0-0.5,0-1.1,0-1.6c0-0.2,0.1-0.2,0.2-0.2c0.3,0,0.7,0,1,0
	C55.3,11.2,55.3,11.2,55.4,11.2"/>
<path class="st0" d="M32.9,5.8c1.5,1.4,3,2.4,5,2.4C37.9,8,38,7.9,38,7.8c0.3-2.4,1.7-3.1,4-2.1c0.4,0.2,1,0,1.5-0.1
	c-0.2,0.3-0.4,0.6-0.6,1c0.3,0,0.5,0,0.8-0.1c0,0.1-0.1,0.2-0.1,0.3c-0.5,0.4-0.8,0.9-0.8,1.7c-0.4,5-5.9,7.9-10.1,5.5
	c0.9-0.3,1.9-0.6,3-1c-0.8-0.6-1.5-1-2.3-1.6c0.5-0.2,0.7-0.3,0.9-0.4c-0.8-0.5-1.6-1-1.6-2.1c0.2,0,0.5-0.1,0.8-0.1
	C32.7,7.9,32.5,7,32.9,5.8"/>
<path class="st0" d="M12,8c0.7,0.1,1.2-0.2,1.1-1.1c0-1-0.2-1.1-1.2-1.2c-0.8,0-1.3,0.2-1.3,1.1C10.8,7.8,10.9,8,12,8 M8.7,12.3
	c1.2,0,2.3-1,2.3-2.1c0-1.2-1.1-2.2-2.4-2.2c-1.2,0-2.2,1-2.2,2.2C6.3,11.3,7.3,12.3,8.7,12.3 M5.1,9.3C4.2,9.2,4,9.2,4,9.9
	c0,1.2-0.1,2.4,0,3.6c0,0.3,0.5,0.8,0.8,0.8c2.5,0.1,5,0.1,7.6,0c0.2,0,0.7-0.4,0.7-0.6c0.1-1.5,0-3,0-4.4c-0.3,0-0.4-0.1-0.6-0.1
	c-0.1,0-0.3,0.1-0.4,0.1c-0.1,2.7-1.3,4.1-3.5,4.1C6.4,13.5,5.3,12.2,5.1,9.3 M3.1,10.1c0-1.1,0-2.1,0-3.2c0-1.3,0.7-2.1,2-2.1
	c2.4-0.1,4.7-0.1,7.1,0c1.3,0,2,0.9,2,2.2c0,2.2,0,4.3,0,6.5c0,1.3-0.8,2.1-2.1,2.2c-2.3,0-4.6,0-6.9,0c-1.3,0-2-0.8-2-2.2
	C3.1,12.3,3.1,11.2,3.1,10.1"/>
<path class="st0" d="M18.4,14.7c0.1-0.7-0.4-0.8-0.9-0.9c-0.3,0-0.6-0.1-0.9-0.4c0.2,0,0.3-0.1,0.5-0.1c1.1-0.4,1.9-1.2,2.3-2.3
	c0.2-0.4,0-0.7-0.3-0.9c-0.2-0.1-0.3-0.2-0.5-0.2c-0.1-0.1-0.3-0.1-0.4-0.2c-0.1-0.1-0.2-0.2-0.2-0.3c0.1-0.2,0.3-0.2,0.4-0.2
	c0.2,0,0.4,0.1,0.6,0.2c0.5,0.1,0.6-0.1,0.6-0.5c0-0.6,0-1.2,0-1.7c0-1,1-2.2,2.2-2.5c0.7-0.2,1.4-0.2,2.1,0c1,0.3,2.1,1.3,2.1,2.8
	c0,0.5,0,1-0.1,1.6c0,0.3,0.1,0.4,0.4,0.4c0.2,0,0.4,0,0.6-0.1c0.1,0,0.1-0.1,0.2-0.1c0.2,0,0.4,0,0.5,0.2c0.1,0.2-0.1,0.3-0.3,0.3
	c-0.2,0.1-0.4,0.2-0.6,0.3c-0.6,0.2-0.8,0.6-0.5,1.2c0.6,1.1,1.3,1.9,2.6,2.2c0,0,0,0,0.1,0c0,0,0,0,0,0.1c-0.2,0.1-0.3,0.2-0.5,0.2
	c-0.3,0.1-0.5,0.2-0.8,0.2c-0.3,0-0.4,0.2-0.5,0.5c-0.1,0.4-0.1,0.4-0.5,0.3c-0.8-0.1-1.5,0-2.2,0.5c-0.5,0.4-1.1,0.7-1.8,0.6
	c-0.3,0-0.6-0.1-0.9-0.3c-0.2-0.1-0.4-0.2-0.6-0.4c-0.7-0.5-1.4-0.6-2.2-0.5c-0.1,0-0.1,0-0.2,0C18.6,14.7,18.5,14.7,18.4,14.7"/>
</svg>
